<?xml version="1.0" encoding="utf-8"?>
<!-- Generator: Adobe Illustrator 19.1.0, SVG Export Plug-In . SVG Version: 6.00 Build 0)  -->
<svg version="1.1" id="Layer_1" xmlns="http://www.w3.org/2000/svg" xmlns:xlink="http://www.w3.org/1999/xlink" x="0px" y="0px"
	 viewBox="0 0 500 139.8" style="enable-background:new 0 0 500 139.8;" xml:space="preserve">
<style type="text/css">
	.st0{fill:#FFF6D3;}
	.st1{fill:#FFF6D3;stroke:#FFF6D3;stroke-width:0.657;stroke-miterlimit:10;}
</style>
<g>
	<g>
		<path class="st0" d="M191.1,120c1,0.5,2,1.1,2.9,2l-2.7,2.7c-0.9-1.1-2.2-1.6-3.8-1.6s-2.7,0.4-3.1,1.2c-0.5,0.8-0.5,1.4,0,2
			c0.5,0.5,1.5,1,3.1,1.2c1.7,0.2,3.3,0.7,4.7,1.7c1.4,1,2.1,2.5,2.1,4.6c0,1.6-0.8,3-2.3,4.2c-1.5,1.2-3.3,1.8-5.3,1.8
			c-1.9,0-3.5-0.3-4.8-0.8c-1.3-0.5-2.4-1.3-3.3-2.2l2.7-2.7c0.9,1.1,2.5,1.7,4.6,1.9c1.8,0,3-0.4,3.4-1.2c0.4-0.8,0.4-1.5,0-2.3
			c-0.4-0.8-1.6-1.2-3.4-1.4c-1.6-0.2-3.1-0.7-4.5-1.5c-1.4-0.8-2-2.2-2-4.2c0-1.8,0.8-3.3,2.3-4.4c1.5-1.1,3.1-1.6,4.8-1.6
			C188.6,119.3,190.1,119.5,191.1,120z"/>
		<path class="st0" d="M220.2,119.3v3.8h-6.8v16.6h-4.1v-16.6h-6.8v-3.8H220.2z"/>
		<path class="st0" d="M232.6,119.3v11.9c0,1.5,0.5,2.7,1.4,3.4s2,1.1,3.4,1.1s2.5-0.4,3.4-1.1c0.9-0.7,1.4-1.9,1.4-3.4v-11.9h4.1
			v13c0,2.1-0.8,3.9-2.5,5.3c-1.7,1.5-3.8,2.2-6.3,2.2s-4.7-0.7-6.3-2.2c-1.7-1.5-2.5-3.2-2.5-5.3v-13H232.6z"/>
		<path class="st0" d="M256.3,139.8v-20.5h7.9c6.4,0,9.5,3.4,9.5,10.2c0,6.8-3.2,10.2-9.5,10.2H256.3z M264.1,135.7
			c3.6,0,5.4-2.1,5.5-6.1c0-4.1-1.8-6.1-5.5-6.1h-3.8v12.3H264.1z"/>
		<path class="st0" d="M283.7,119.3h4.1v20.5h-4.1V119.3z"/>
		<path class="st0" d="M299.3,136.8c-2-2-2.9-4.4-2.9-7.3c0-2.9,1-5.3,2.9-7.3s4.4-2.9,7.3-2.9c2.9,0,5.3,1,7.3,2.9s2.9,4.4,2.9,7.3
			s-1,5.3-2.9,7.3s-4.4,2.9-7.3,2.9C303.7,139.8,301.3,138.8,299.3,136.8z M306.6,135.9c1.8,0,3.3-0.6,4.4-1.8
			c1.1-1.2,1.7-2.7,1.7-4.6c0-1.8-0.6-3.3-1.7-4.6c-1.1-1.2-2.6-1.8-4.4-1.8c-1.8,0-3.3,0.6-4.4,1.8c-1.1,1.2-1.7,2.7-1.7,4.6
			c0,1.8,0.6,3.3,1.7,4.6C303.3,135.3,304.8,135.9,306.6,135.9z"/>
	</g>
	<g>
		<path class="st0" d="M79.3,36.4H84c0.8,0,1.5,0.1,2.2,0.2c0.7,0.1,1.3,0.3,1.8,0.7c0.5,0.3,0.9,0.8,1.2,1.5
			c0.3,0.6,0.4,1.5,0.4,2.6v10c0,2.5-2,4.5-4.5,4.5H65.3c-2.5,0-4.5-2-4.5-4.5v-10c0-1.1,0.2-1.9,0.5-2.6c0.3-0.6,0.7-1.1,1.2-1.5
			c0.5-0.3,1.1-0.6,1.8-0.7c0.7-0.1,1.4-0.2,2.2-0.2h4.8v-4H33.1v4h4.6c0.8,0,1.5,0.1,2.2,0.2c0.7,0.1,1.3,0.3,1.8,0.6
			c0.5,0.3,0.9,0.8,1.2,1.4c0.3,0.6,0.5,1.4,0.5,2.4v36.2c0,1.1-0.1,1.9-0.4,2.6c-0.3,0.6-0.7,1.1-1.2,1.5c-0.5,0.3-1.1,0.6-1.8,0.7
			c-0.7,0.1-1.4,0.2-2.2,0.2h-4.6v4h38.2v-4h-4.8c-0.8,0-1.5-0.1-2.2-0.2c-0.7-0.1-1.3-0.3-1.8-0.7c-0.5-0.3-0.9-0.8-1.2-1.5
			c-0.3-0.6-0.5-1.5-0.5-2.6V64.9c0-2.5,2-4.5,4.5-4.5h19.9c2.5,0,4.5,2,4.5,4.5v12.3c0,1.1-0.1,1.9-0.4,2.6
			c-0.3,0.6-0.7,1.1-1.2,1.5c-0.5,0.3-1.1,0.6-1.8,0.7c-0.7,0.1-1.4,0.2-2.2,0.2h-4.8v4h38.2v-4h-4.6c-0.8,0-1.5,0-2.1-0.1
			c-0.7-0.1-1.3-0.3-1.8-0.6c-0.5-0.3-0.9-0.8-1.2-1.4c-0.3-0.6-0.5-1.4-0.5-2.4V41.3c0-1.1,0.1-1.9,0.4-2.6
			c0.3-0.6,0.7-1.1,1.2-1.5c0.5-0.3,1.1-0.6,1.8-0.7c0.7-0.1,1.4-0.2,2.2-0.2h4.6v-4H79.3V36.4z M51.1,78.3c0,2.2-1.8,4-4,4h-0.5
			V40.4c0-2.2,1.8-4,4-4h0.5V78.3z M92.8,40.3c0-2.2,1.8-4,4-4h0.5v41.9c0,2.2-1.8,4-4,4h-0.5V40.3z"/>
		<path class="st0" d="M212.1,75.8c-0.2,0.8-0.4,1.6-0.8,2.3c-0.3,0.7-0.8,1.3-1.4,1.8c-0.6,0.5-1.3,0.9-2.1,1.2
			c-0.8,0.3-1.7,0.4-2.9,0.4h-22.1V64.8c0-2.5,2-4.5,4.5-4.5h21.7v-4.5h-21.7c-2.5,0-4.5-2-4.5-4.5V37h18.6c2.3,0,3.9,0.5,5,1.5
			c1.1,1,1.8,2.4,2.1,4.2l0.5,3.6h7.7l-0.4-13.8H155v4h4.6c0.8,0,1.6,0.1,2.3,0.2c0.7,0.1,1.3,0.3,1.8,0.7c0.5,0.3,0.9,0.8,1.2,1.5
			c0.3,0.6,0.4,1.5,0.4,2.6v36.3c0,1-0.1,1.8-0.4,2.4c-0.3,0.6-0.7,1.1-1.2,1.4c-0.5,0.3-1.1,0.5-1.8,0.6c-0.7,0.1-1.4,0.1-2.2,0.1
			H155v4h64.8l0.8-13.8H213L212.1,75.8z M172.8,78.2c0,2.2-1.8,4-4,4h-0.5V40.3c0-2.2,1.8-4,4-4h0.5V78.2z"/>
		<path class="st0" d="M325.2,75c-0.6,2.1-1.7,3.8-3.1,4.9c-1.4,1.1-3.5,1.7-6,1.7H300c-2.5,0-4.5-2-4.5-4.5V41c0-1,0.2-1.8,0.5-2.4
			c0.3-0.6,0.7-1.1,1.2-1.4c0.5-0.3,1.1-0.5,1.8-0.6c0.7-0.1,1.4-0.2,2.2-0.2h4.6v-4h-38.2v4h4.6c0.8,0,1.6,0.1,2.3,0.2
			c0.7,0.1,1.3,0.3,1.8,0.7c0.5,0.3,0.9,0.8,1.2,1.5c0.3,0.6,0.4,1.5,0.4,2.6v35.9c0,1.1-0.1,1.9-0.4,2.6c-0.3,0.6-0.7,1.1-1.2,1.5
			c-0.5,0.3-1.1,0.6-1.8,0.7c-0.7,0.1-1.4,0.2-2.3,0.2h-4.6v4h64.8l0.8-16.8H327L325.2,75z M285.3,78.3c0,2.2-1.8,4-4,4h-0.5V40.4
			c0-2.2,1.8-4,4-4h0.5V78.3z"/>
		<path class="st0" d="M452.7,38.7c0.3-0.6,0.7-1.1,1.2-1.5c0.5-0.3,1.1-0.6,1.8-0.7c0.7-0.1,1.4-0.2,2.2-0.2h4.6v-4h-31.3
			l-17.6,36.3l-18.4-36.3h-31.9v4h4.6c0.8,0,1.5,0.1,2.2,0.2c0.7,0.1,1.3,0.3,1.8,0.6c0.5,0.3,0.9,0.8,1.2,1.4
			c0.3,0.6,0.4,1.4,0.4,2.4v36.6c0,1-0.1,1.8-0.4,2.4c-0.3,0.6-0.7,1.1-1.2,1.4c-0.5,0.3-1.1,0.5-1.8,0.6c-0.7,0.1-1.4,0.1-2.2,0.1
			h-4.6v4h27.4v-4h-0.6c-1.3,0-2.4-0.1-3.5-0.2c-1-0.1-1.9-0.3-2.6-0.7c-0.7-0.3-1.2-0.8-1.6-1.5c-0.4-0.6-0.6-1.5-0.6-2.6V44.6
			c0-1.2,1.6-1.6,2.2-0.5l21.2,42h7.5L433,44.3c0.5-1.1,2.2-0.7,2.2,0.5v33.1c0,0.9-0.1,1.6-0.4,2.2c-0.3,0.6-0.7,1-1.3,1.3
			c-0.6,0.3-1.3,0.5-2.2,0.6c-0.9,0.1-1.9,0.1-3.1,0.1h-1.1v4h35.4v-4h-4.6c-0.8,0-1.5-0.1-2.2-0.2c-0.7-0.1-1.3-0.3-1.8-0.7
			c-0.5-0.3-0.9-0.8-1.2-1.5c-0.3-0.6-0.4-1.5-0.4-2.6V41.3C452.3,40.2,452.4,39.3,452.7,38.7z M406.7,80.5l-0.4,0.2l-18.9-37.4
			c-1-2-0.2-4.4,1.8-5.4l0.4-0.2l18.9,37.4C409.5,77.1,408.7,79.5,406.7,80.5z M442.6,78.2c0,2.2-1.8,4-4,4h-0.5V40.3
			c0-2.2,1.8-4,4-4h0.5V78.2z"/>
	</g>
	<line class="st1" x1="333.2" y1="129.5" x2="462.5" y2="129.5"/>
	<line class="st1" x1="25.7" y1="129.5" x2="168.4" y2="129.5"/>
	<line class="st1" x1="25.7" y1="0" x2="474.3" y2="0"/>
</g>
</svg>
