<?xml version="1.0" encoding="utf-8"?>
<!-- Generator: Adobe Illustrator 19.1.0, SVG Export Plug-In . SVG Version: 6.00 Build 0)  -->
<svg version="1.1" id="Layer_1" xmlns="http://www.w3.org/2000/svg" xmlns:xlink="http://www.w3.org/1999/xlink" x="0px" y="0px"
	 viewBox="0 0 500 500" style="enable-background:new 0 0 500 500;" xml:space="preserve">
<style type="text/css">
	.st0{fill:#052A42;}
	.st1{fill:#F4AC30;}
	.st2{fill:#FFF6D3;}
</style>
<g>
	<g>
		<g>
			<path class="st0" d="M122.5,215.1c4.8-65.4,59.5-117.1,126.1-117.1c66.4,0,120.9,51.4,126,116.5c1.4,0.5,3.1,1.1,4.6,1.4
				C374.9,147.6,318,93.4,248.6,93.4c-70.1,0-127.5,55.3-130.8,124.6L122.5,215.1z"/>
			<g>
				<g>
					<path class="st0" d="M248.6,439l-70.9-40.9c-31.9-18.4-51.7-52.7-51.7-89.5v-81.8L248.6,156l122.6,70.8v81.8
						c0,36.8-19.8,71.1-51.7,89.5L248.6,439z"/>
					<path class="st0" d="M151.8,241.6v67c0,27.6,14.9,53.4,38.8,67.2l58,33.5l58-33.5c23.9-13.8,38.8-39.6,38.8-67.2v-67
						l-96.8-55.9L151.8,241.6z"/>
				</g>
				<g>
					<path class="st0" d="M248.6,439l-70.9-40.9c-31.9-18.4-51.7-52.7-51.7-89.5v-81.8L248.6,156l122.6,70.8v81.8
						c0,36.8-19.8,71.1-51.7,89.5L248.6,439z"/>
					<path class="st1" d="M151.8,241.6v67c0,27.6,14.9,53.4,38.8,67.2l58,33.5l58-33.5c23.9-13.8,38.8-39.6,38.8-67.2v-67
						l-96.8-55.9L151.8,241.6z"/>
				</g>
				<g>
					<path class="st0" d="M390.9,299.5c-0.3,2.3-0.9,4.5-1.3,6.7c-0.4,2.2-1.1,4.4-1.6,6.6c-0.5,2.2-1.2,4.4-2,6.5l-1.1,3.2
						l-1.2,3.1c-0.8,2.1-1.6,4.2-2.6,6.2c-1.8,4.1-3.9,8-6.1,11.8l-3.5,5.6l-3.8,5.4l-4.1,5.1c-1.4,1.7-2.9,3.3-4.4,4.9
						c-1.4,1.7-3.1,3.1-4.6,4.6c-1.5,1.6-3.2,3-4.8,4.4l-2.5,2.1l-2.6,2c-1.7,1.3-3.4,2.6-5.3,3.8c-1.8,1.2-3.5,2.5-5.4,3.5
						l-5.6,3.2l-12.2,6.6c-8.1,4.3-16.2,8.8-24.2,13.3c-8.1,4.4-16.1,9-24.1,13.5l-24,13.7h9.5l-24-13.7c-8-4.5-16-9-24.1-13.5
						c-8.1-4.4-16.1-8.9-24.2-13.3l-12.2-6.6l-0.4-0.2l0,0c0.1,0.1-0.3-0.2,0.2,0.1l-0.1-0.1l-0.2-0.1l-0.7-0.4l-1.5-0.9l-3-1.7
						c-0.5-0.3-1-0.6-1.5-0.9l-1.3-0.9l-2.6-1.7c-1.8-1.1-3.5-2.5-5.2-3.7l-2.6-2l-2.5-2.1c-1.7-1.4-3.3-2.8-4.8-4.4
						c-1.5-1.5-3.2-3-4.6-4.6c-1.4-1.6-3-3.2-4.4-4.9l-4.1-5.1l-3.8-5.4l-3.5-5.6c-2.2-3.8-4.3-7.8-6.1-11.8c-1-2-1.8-4.1-2.6-6.2
						l-1.2-3.1l-1.1-3.2c-0.7-2.1-1.5-4.3-2-6.5c-0.5-2.2-1.2-4.4-1.6-6.6c-0.4-2.2-1-4.5-1.3-6.8c-0.3-2.3-0.6-4.6-1-6.9
						c-0.2,2.3-0.4,4.6-0.5,6.9c-0.1,2.3,0,4.7-0.1,7c-0.1,2.4,0.3,4.7,0.4,7c0.1,2.4,0.5,4.7,0.8,7l0.5,3.5
						c0.2,1.2,0.5,2.3,0.8,3.5c0.5,2.3,1,4.6,1.7,6.9c1.3,4.6,3,9.1,4.8,13.5c1,2.2,2,4.4,3,6.5l3.5,6.3c1.2,2.1,2.6,4.1,3.9,6.1
						c1.3,2,2.8,3.9,4.2,5.9c1.4,2,3,3.8,4.6,5.6c1.5,1.9,3.3,3.6,5,5.4l2.6,2.6l2.7,2.5c1.8,1.6,3.6,3.3,5.7,4.8l3,2.3l1.5,1.2
						c0.5,0.4,1,0.7,1.4,1l2.9,1.9l1.4,1l0.7,0.5l0.2,0.1l0.1,0.1l0.3,0.2l0.4,0.2l11.8,7.3c7.8,4.9,15.7,9.6,23.6,14.4
						c7.9,4.8,15.8,9.4,23.7,14.1l23.9,13.9l4.8,2.8l4.8-2.8l23.9-13.9c7.9-4.7,15.9-9.4,23.7-14.1c7.9-4.8,15.8-9.5,23.6-14.4
						l11.8-7.3l6.1-4.1c2.1-1.3,3.9-2.9,5.9-4.4c2-1.4,3.8-3.1,5.6-4.7l2.7-2.5l2.6-2.6c1.7-1.7,3.4-3.5,5-5.4
						c1.6-1.9,3.2-3.7,4.6-5.6c1.4-2,2.9-3.9,4.2-5.9c1.3-2,2.6-4,3.9-6.1l3.5-6.3c1-2.2,2-4.4,3-6.5c1.8-4.4,3.5-8.9,4.8-13.5
						c0.7-2.3,1.2-4.6,1.7-6.9c0.3-1.2,0.5-2.3,0.8-3.5l0.5-3.5c0.4-2.3,0.7-4.7,0.9-7c0.1-2.4,0.5-4.7,0.4-7c0-2.4,0.1-4.7-0.1-7
						c-0.1-2.3-0.3-4.6-0.5-6.9C391.5,294.9,391.2,297.2,390.9,299.5z"/>
					<path class="st0" d="M422.1,254.4l-0.3,2.2c0,0,0,0.1,0,0.1l-0.4,2.2l-0.8,4.5c-0.3,1.5-0.5,3-0.8,4.5l-1,4.5
						c-0.7,3-1.3,6-2.2,8.9c-0.9,2.9-1.6,5.9-2.5,8.7l-2.9,8.6l-3.3,8.4l-0.8,2.1l-0.9,2l-1.9,4.1c-0.6,1.3-1.2,2.7-1.9,4.1l-2.1,4
						l-2.1,4c-0.7,1.3-1.5,2.6-2.3,3.8c-3,5.1-6.3,10-9.7,14.8l-5.3,6.9c0,0-0.1,0.1-0.1,0.1l-5.7,6.6c-1.9,2.2-4.1,4.2-6.1,6.3
						l-1.5,1.5l-1.6,1.4l-3.2,2.9c-2.1,2-4.4,3.7-6.6,5.5c-1.1,0.9-2.2,1.8-3.4,2.6l-3.6,2.4l-3.5,2.4l-3.9,2.5l-7.8,5
						c-5.2,3.4-10.4,6.7-15.5,10.1l-15.5,10.2c-10.3,6.8-20.5,13.7-30.8,20.6L247.3,450c-1.8,1.2-0.9,4,1.2,4h0c2.2,0,3.1-2.8,1.2-4
						l-24.7-16.8l-15.4-10.3c-5.1-3.4-10.2-6.9-15.4-10.3c-10.3-6.8-20.6-13.6-31-20.3l-7.8-5L152,385l-3.8-2.6l-3.8-2.6
						c-1.2-0.9-2.2-1.7-3.3-2.6c-2.2-1.7-4.4-3.3-6.5-5.4c-4.3-3.8-8.4-7.9-12.4-12.2l-5.7-6.6c0,0-0.1-0.1-0.1-0.1l-5.3-6.9
						c-3.4-4.8-6.7-9.7-9.7-14.8c-0.7-1.3-1.6-2.5-2.3-3.8l-2.1-3.9l-2.1-4c-0.7-1.3-1.2-2.7-1.9-4.1l-1.9-4.1l-0.9-2l-0.8-2.1
						l-3.3-8.4l-2.9-8.6c-0.9-2.9-1.7-5.8-2.5-8.7c-0.9-2.9-1.5-5.9-2.2-8.9l-1-4.5c-0.3-1.5-0.5-3-0.8-4.5l-0.8-4.5
						c-0.3-1.5-0.6-3-0.7-4.6c-0.4-3.1-0.8-3.9-1.2-6.9c-0.6,6.2-1,10.1-1,16.4c0,1.6,0,3.1,0,4.7l0.2,4.7c0.2,3.1,0.3,6.3,0.7,9.4
						c0.4,3.1,0.7,6.3,1.2,9.4l1.7,9.4c1.4,6.2,2.9,12.4,4.9,18.4c0.5,1.5,0.9,3.1,1.5,4.6l1.7,4.5l1.7,4.5c0.6,1.5,1.3,2.9,1.9,4.4
						c2.5,5.9,5.6,11.6,8.8,17.2l5.1,8.2c0,0,0.1,0.1,0.1,0.1l5.7,7.9c4,5.2,8.2,10.2,12.8,14.9c2.2,2.4,4.8,4.7,7.3,7
						c1.3,1.1,2.6,2.4,3.8,3.4l3.6,2.9l3.6,2.9l4,3l7.5,5.5c9.9,7.3,20,14.5,30,21.7c5,3.6,10.1,7.1,15.1,10.7l15.1,10.7l30.4,21.1
						l5.9,4.1c0.8,0.5,1.8,0.5,2.5,0l5.9-4.1l30.4-21.1c10.1-7.1,20.2-14.2,30.2-21.4l15-10.8c5-3.6,10-7.3,15-10.9l7.5-5.5l3.8-2.8
						l3.9-3.1l3.9-3.1c1.3-1.1,2.5-2.2,3.7-3.3c2.4-2.2,4.9-4.4,7.1-6.9c4.7-4.7,8.8-9.8,12.8-14.9l5.7-7.9c0,0,0.1-0.1,0.1-0.1
						l5.1-8.2c3.2-5.6,6.3-11.3,8.8-17.2c0.6-1.5,1.4-2.9,1.9-4.4l1.7-4.5l1.7-4.5c0.6-1.5,1-3,1.5-4.6c2-6.1,3.5-12.3,4.9-18.4
						l1.7-9.4c0.5-3.1,0.8-6.3,1.2-9.4c0.4-3.1,0.5-6.3,0.7-9.4l0.2-4.7c0-1.6,0-3.2,0-4.7c0-6.3-0.4-10.2-1-16.4
						C422.9,250.5,422.5,251.3,422.1,254.4z"/>
				</g>
				<path class="st0" d="M205.1,344.2l2.9,1.8l5.9,3.4l11.8,6.7l4,2.3V315l18.9-7.3l18.9,7.3v43.3l4-2.3l11.8-6.7l5.9-3.4l2.8-1.7
					c0.9-0.5,1.7-1.1,2.5-1.7v-90.7l-27-15.1v52.6l-18.9-7.3l-18.9,7.3v-52.6l-27,15.2v90.6C203.5,343,204.2,343.6,205.1,344.2z"/>
				<g>
					<path class="st0" d="M108.8,99.2c8.5,0,15.6,11.4,19.2,22.1c-17.7,20.3-30.2,45.2-35.8,72.5l4.8,2.6l0.3,0.2
						c0.6,0.3,1.6,0.9,2.7,1.8c1.2,0.9,2.4,2.1,3.6,3.4c1.5,1.8,2.7,3.5,3.7,5.3c1.1,1.9,2.1,4,2.9,6.3c0.3,0.8,0.5,1.5,0.8,2.3
						l0.3,0.9c0.4,1.4,0.7,2.6,1,3.8c0.1,0.4,0.1,0.7,0.2,1c2.4-73,62.5-131.7,136.1-131.7c71.3,0,130,55.1,135.7,125
						c0.2-0.5,0.3-0.9,0.5-1.4c0.9-2.3,1.9-4.4,2.9-6.3c1-1.8,2.2-3.5,3.6-5.1c1.4-1.5,2.6-2.7,3.8-3.6c1.1-0.9,2.1-1.5,2.7-1.8
						l0.3-0.2l6.8-3.6c-5.7-26.9-18.2-51.4-35.6-71.5c3.5-10.7,10.7-22.1,19.2-22.1c9.8,0,11.6-12.3,5.6-18.3
						c-6-6-18.3-4.2-18.3,5.6c0,8.4-11.4,15.6-22.1,19.1c-25.5-22.3-58.1-36.6-93.9-39c-5-10.1-7.9-23.1-2-29
						c6.9-6.9-0.5-16.9-9-16.9c-8.5,0-15.9,10-9,16.9c5.9,5.9,3,18.9-2,29c-35.8,2.5-68.4,16.8-93.9,39
						c-10.7-3.5-22.1-10.7-22.1-19.1c0-9.8-12.3-11.6-18.3-5.6C97.2,86.9,99,99.2,108.8,99.2z"/>
					<path class="st0" d="M248.6,102.6C185,102.6,132.5,151,126,212.9l26.2-15.1c12.2-41.7,50.8-72.3,96.4-72.3
						c45.6,0,84.2,30.6,96.4,72.3l26.2,15.1C364.6,151,312.2,102.6,248.6,102.6z"/>
				</g>
				<polygon class="st0" points="235.9,429.2 246.9,425.9 268.6,436.6 252.3,458.3 228.7,448.9 				"/>
				<g>
					<circle class="st0" cx="248.6" cy="95.5" r="20.6"/>
					<circle class="st1" cx="248.6" cy="95.5" r="5.9"/>
				</g>
				<g>
					<circle class="st0" cx="154.5" cy="137" r="20.6"/>
					<circle class="st1" cx="154.5" cy="137" r="5.9"/>
				</g>
				<g>
					<circle class="st0" cx="341" cy="137" r="20.6"/>
					<circle class="st1" cx="341" cy="137" r="5.9"/>
				</g>
			</g>
		</g>
		<path class="st0" d="M69.6,216.9L69.6,216.9c0-0.1,0.2-0.1,0.4-0.2c0,0,0,0,0,0l0,0c2.5-0.7,5-0.9,7.6-1.1
			c1.7,0.1,3.7,0.1,5.8,0.7c1.1,0.2,2.2,0.5,3.3,0.9c1.1,0.4,2.2,0.9,3.3,1.5c2.3,1.1,4.4,2.8,6.3,4.8c7.9,8.5,10.6,21.3,11.4,32.5
			c0.6,8.1,0.2,16.6-1.4,24.6l-0.7-0.1c0.6-13.4-0.8-28.2-6.3-40.5c-0.8-1.6-1.6-3.2-2.5-4.7c-0.4-0.5-0.8-1.1-1.3-2
			c-1-1.3-2-2.5-3-3.6c-4.1-3.6-15.2-6.7-17.6,0.6c-0.9,2.8,0.8,5.5-0.7,8.2c-1.1,2.2-3.5,3.3-5.8,3.6c-5.5,0.7-10.7-3-11.2-8.6
			C56.4,225.7,63,219.6,69.6,216.9z"/>
		<path class="st0" d="M430.8,213.9L430.8,213.9c0-0.1-0.2-0.1-0.4-0.2c0,0,0,0,0,0l0,0c-2.5-0.7-5-0.9-7.6-1.1
			c-1.7,0.1-3.7,0.1-5.8,0.7c-1.1,0.2-2.2,0.5-3.3,0.9c-1.1,0.4-2.2,0.9-3.3,1.5c-2.3,1.1-4.4,2.8-6.3,4.8
			c-7.9,8.5-10.6,21.3-11.4,32.5c-0.6,8.1-0.2,16.6,1.4,24.6l0.7-0.1c-0.6-13.4,0.8-28.2,6.3-40.5c0.8-1.6,1.6-3.2,2.5-4.7
			c0.4-0.5,0.8-1.1,1.3-2c1-1.3,2-2.5,3-3.6c4.1-3.6,15.2-6.7,17.6,0.6c0.9,2.8-0.8,5.5,0.7,8.2c1.1,2.2,3.5,3.3,5.8,3.6
			c5.5,0.7,10.7-3,11.2-8.6C444,222.8,437.4,216.6,430.8,213.9z"/>
	</g>
	<g>
		<g>
			<path class="st0" d="M122.5,215.1c4.8-65.4,59.5-117.1,126.1-117.1c66.4,0,120.9,51.4,126,116.5c1.4,0.5,3.1,1.1,4.6,1.4
				C374.9,147.6,318,93.4,248.6,93.4c-70.1,0-127.5,55.3-130.8,124.6L122.5,215.1z"/>
			<g>
				<g>
					<path class="st0" d="M248.6,439l-70.9-40.9c-31.9-18.4-51.7-52.7-51.7-89.5v-81.8L248.6,156l122.6,70.8v81.8
						c0,36.8-19.8,71.1-51.7,89.5L248.6,439z"/>
					<path class="st0" d="M151.8,241.6v67c0,27.6,14.9,53.4,38.8,67.2l58,33.5l58-33.5c23.9-13.8,38.8-39.6,38.8-67.2v-67
						l-96.8-55.9L151.8,241.6z"/>
				</g>
				<g>
					<path class="st0" d="M248.6,439l-70.9-40.9c-31.9-18.4-51.7-52.7-51.7-89.5v-81.8L248.6,156l122.6,70.8v81.8
						c0,36.8-19.8,71.1-51.7,89.5L248.6,439z"/>
					<path class="st1" d="M151.8,241.6v67c0,27.6,14.9,53.4,38.8,67.2l58,33.5l58-33.5c23.9-13.8,38.8-39.6,38.8-67.2v-67
						l-96.8-55.9L151.8,241.6z"/>
					<path class="st2" d="M159.1,245.8v61.9c0,25.5,13.7,49.4,35.9,62.1l53.6,31l53.6-31c22.1-12.8,35.9-36.6,35.9-62.1v-61.9
						l-89.5-51.7L159.1,245.8z"/>
				</g>
				<g>
					<path class="st0" d="M390.9,299.5c-0.3,2.3-0.9,4.5-1.3,6.7c-0.4,2.2-1.1,4.4-1.6,6.6c-0.5,2.2-1.2,4.4-2,6.5l-1.1,3.2
						l-1.2,3.1c-0.8,2.1-1.6,4.2-2.6,6.2c-1.8,4.1-3.9,8-6.1,11.8l-3.5,5.6l-3.8,5.4l-4.1,5.1c-1.4,1.7-2.9,3.3-4.4,4.9
						c-1.4,1.7-3.1,3.1-4.6,4.6c-1.5,1.6-3.2,3-4.8,4.4l-2.5,2.1l-2.6,2c-1.7,1.3-3.4,2.6-5.3,3.8c-1.8,1.2-3.5,2.5-5.4,3.5
						l-5.6,3.2l-12.2,6.6c-8.1,4.3-16.2,8.8-24.2,13.3c-8.1,4.4-16.1,9-24.1,13.5l-24,13.7h9.5l-24-13.7c-8-4.5-16-9-24.1-13.5
						c-8.1-4.4-16.1-8.9-24.2-13.3l-12.2-6.6l-0.4-0.2l0,0c0.1,0.1-0.3-0.2,0.2,0.1l-0.1-0.1l-0.2-0.1l-0.7-0.4l-1.5-0.9l-3-1.7
						c-0.5-0.3-1-0.6-1.5-0.9l-1.3-0.9l-2.6-1.7c-1.8-1.1-3.5-2.5-5.2-3.7l-2.6-2l-2.5-2.1c-1.7-1.4-3.3-2.8-4.8-4.4
						c-1.5-1.5-3.2-3-4.6-4.6c-1.4-1.6-3-3.2-4.4-4.9l-4.1-5.1l-3.8-5.4l-3.5-5.6c-2.2-3.8-4.3-7.8-6.1-11.8c-1-2-1.8-4.1-2.6-6.2
						l-1.2-3.1l-1.1-3.2c-0.7-2.1-1.5-4.3-2-6.5c-0.5-2.2-1.2-4.4-1.6-6.6c-0.4-2.2-1-4.5-1.3-6.8c-0.3-2.3-0.6-4.6-1-6.9
						c-0.2,2.3-0.4,4.6-0.5,6.9c-0.1,2.3,0,4.7-0.1,7c-0.1,2.4,0.3,4.7,0.4,7c0.1,2.4,0.5,4.7,0.8,7l0.5,3.5
						c0.2,1.2,0.5,2.3,0.8,3.5c0.5,2.3,1,4.6,1.7,6.9c1.3,4.6,3,9.1,4.8,13.5c1,2.2,2,4.4,3,6.5l3.5,6.3c1.2,2.1,2.6,4.1,3.9,6.1
						c1.3,2,2.8,3.9,4.2,5.9c1.4,2,3,3.8,4.6,5.6c1.5,1.9,3.3,3.6,5,5.4l2.6,2.6l2.7,2.5c1.8,1.6,3.6,3.3,5.7,4.8l3,2.3l1.5,1.2
						c0.5,0.4,1,0.7,1.4,1l2.9,1.9l1.4,1l0.7,0.5l0.2,0.1l0.1,0.1l0.3,0.2l0.4,0.2l11.8,7.3c7.8,4.9,15.7,9.6,23.6,14.4
						c7.9,4.8,15.8,9.4,23.7,14.1l23.9,13.9l4.8,2.8l4.8-2.8l23.9-13.9c7.9-4.7,15.9-9.4,23.7-14.1c7.9-4.8,15.8-9.5,23.6-14.4
						l11.8-7.3l6.1-4.1c2.1-1.3,3.9-2.9,5.9-4.4c2-1.4,3.8-3.1,5.6-4.7l2.7-2.5l2.6-2.6c1.7-1.7,3.4-3.5,5-5.4
						c1.6-1.9,3.2-3.7,4.6-5.6c1.4-2,2.9-3.9,4.2-5.9c1.3-2,2.6-4,3.9-6.1l3.5-6.3c1-2.2,2-4.4,3-6.5c1.8-4.4,3.5-8.9,4.8-13.5
						c0.7-2.3,1.2-4.6,1.7-6.9c0.3-1.2,0.5-2.3,0.8-3.5l0.5-3.5c0.4-2.3,0.7-4.7,0.9-7c0.1-2.4,0.5-4.7,0.4-7c0-2.4,0.1-4.7-0.1-7
						c-0.1-2.3-0.3-4.6-0.5-6.9C391.5,294.9,391.2,297.2,390.9,299.5z"/>
					<path class="st0" d="M422.1,254.4l-0.3,2.2c0,0,0,0.1,0,0.1l-0.4,2.2l-0.8,4.5c-0.3,1.5-0.5,3-0.8,4.5l-1,4.5
						c-0.7,3-1.3,6-2.2,8.9c-0.9,2.9-1.6,5.9-2.5,8.7l-2.9,8.6l-3.3,8.4l-0.8,2.1l-0.9,2l-1.9,4.1c-0.6,1.3-1.2,2.7-1.9,4.1l-2.1,4
						l-2.1,4c-0.7,1.3-1.5,2.6-2.3,3.8c-3,5.1-6.3,10-9.7,14.8l-5.3,6.9c0,0-0.1,0.1-0.1,0.1l-5.7,6.6c-1.9,2.2-4.1,4.2-6.1,6.3
						l-1.5,1.5l-1.6,1.4l-3.2,2.9c-2.1,2-4.4,3.7-6.6,5.5c-1.1,0.9-2.2,1.8-3.4,2.6l-3.6,2.4l-3.5,2.4l-3.9,2.5l-7.8,5
						c-5.2,3.4-10.4,6.7-15.5,10.1l-15.5,10.2c-10.3,6.8-20.5,13.7-30.8,20.6L247.3,450c-1.8,1.2-0.9,4,1.2,4h0c2.2,0,3.1-2.8,1.2-4
						l-24.7-16.8l-15.4-10.3c-5.1-3.4-10.2-6.9-15.4-10.3c-10.3-6.8-20.6-13.6-31-20.3l-7.8-5L152,385l-3.8-2.6l-3.8-2.6
						c-1.2-0.9-2.2-1.7-3.3-2.6c-2.2-1.7-4.4-3.3-6.5-5.4c-4.3-3.8-8.4-7.9-12.4-12.2l-5.7-6.6c0,0-0.1-0.1-0.1-0.1l-5.3-6.9
						c-3.4-4.8-6.7-9.7-9.7-14.8c-0.7-1.3-1.6-2.5-2.3-3.8l-2.1-3.9l-2.1-4c-0.7-1.3-1.2-2.7-1.9-4.1l-1.9-4.1l-0.9-2l-0.8-2.1
						l-3.3-8.4l-2.9-8.6c-0.9-2.9-1.7-5.8-2.5-8.7c-0.9-2.9-1.5-5.9-2.2-8.9l-1-4.5c-0.3-1.5-0.5-3-0.8-4.5l-0.8-4.5
						c-0.3-1.5-0.6-3-0.7-4.6c-0.4-3.1-0.8-3.9-1.2-6.9c-0.6,6.2-1,10.1-1,16.4c0,1.6,0,3.1,0,4.7l0.2,4.7c0.2,3.1,0.3,6.3,0.7,9.4
						c0.4,3.1,0.7,6.3,1.2,9.4l1.7,9.4c1.4,6.2,2.9,12.4,4.9,18.4c0.5,1.5,0.9,3.1,1.5,4.6l1.7,4.5l1.7,4.5c0.6,1.5,1.3,2.9,1.9,4.4
						c2.5,5.9,5.6,11.6,8.8,17.2l5.1,8.2c0,0,0.1,0.1,0.1,0.1l5.7,7.9c4,5.2,8.2,10.2,12.8,14.9c2.2,2.4,4.8,4.7,7.3,7
						c1.3,1.1,2.6,2.4,3.8,3.4l3.6,2.9l3.6,2.9l4,3l7.5,5.5c9.9,7.3,20,14.5,30,21.7c5,3.6,10.1,7.1,15.1,10.7l15.1,10.7l30.4,21.1
						l5.9,4.1c0.8,0.5,1.8,0.5,2.5,0l5.9-4.1l30.4-21.1c10.1-7.1,20.2-14.2,30.2-21.4l15-10.8c5-3.6,10-7.3,15-10.9l7.5-5.5l3.8-2.8
						l3.9-3.1l3.9-3.1c1.3-1.1,2.5-2.2,3.7-3.3c2.4-2.2,4.9-4.4,7.1-6.9c4.7-4.7,8.8-9.8,12.8-14.9l5.7-7.9c0,0,0.1-0.1,0.1-0.1
						l5.1-8.2c3.2-5.6,6.3-11.3,8.8-17.2c0.6-1.5,1.4-2.9,1.9-4.4l1.7-4.5l1.7-4.5c0.6-1.5,1-3,1.5-4.6c2-6.1,3.5-12.3,4.9-18.4
						l1.7-9.4c0.5-3.1,0.8-6.3,1.2-9.4c0.4-3.1,0.5-6.3,0.7-9.4l0.2-4.7c0-1.6,0-3.2,0-4.7c0-6.3-0.4-10.2-1-16.4
						C422.9,250.5,422.5,251.3,422.1,254.4z"/>
				</g>
				<path class="st1" d="M205.1,344.2l2.9,1.8l5.9,3.4l11.8,6.7l4,2.3V315l18.9-7.3l18.9,7.3v43.3l4-2.3l11.8-6.7l5.9-3.4l2.8-1.7
					c0.9-0.5,1.7-1.1,2.5-1.7v-90.7l-27-15.1v52.6l-18.9-7.3l-18.9,7.3v-52.6l-27,15.2v90.6C203.5,343,204.2,343.6,205.1,344.2z"/>
				<path class="st0" d="M205.1,344.2l2.9,1.8l5.9,3.4l11.8,6.7l4,2.3V315l18.9-7.3l18.9,7.3v43.3l4-2.3l11.8-6.7l5.9-3.4l2.8-1.7
					c0.9-0.5,1.7-1.1,2.5-1.7v-90.7l-27-15.1v52.6l-18.9-7.3l-18.9,7.3v-52.6l-27,15.2v90.6C203.5,343,204.2,343.6,205.1,344.2z"/>
				<g>
					<path class="st0" d="M108.8,99.2c8.5,0,15.6,11.4,19.2,22.1c-17.7,20.3-30.2,45.2-35.8,72.5l4.8,2.6l0.3,0.2
						c0.6,0.3,1.6,0.9,2.7,1.8c1.2,0.9,2.4,2.1,3.6,3.4c1.5,1.8,2.7,3.5,3.7,5.3c1.1,1.9,2.1,4,2.9,6.3c0.3,0.8,0.5,1.5,0.8,2.3
						l0.3,0.9c0.4,1.4,0.7,2.6,1,3.8c0.1,0.4,0.1,0.7,0.2,1c2.4-73,62.5-131.7,136.1-131.7c71.3,0,130,55.1,135.7,125
						c0.2-0.5,0.3-0.9,0.5-1.4c0.9-2.3,1.9-4.4,2.9-6.3c1-1.8,2.2-3.5,3.6-5.1c1.4-1.5,2.6-2.7,3.8-3.6c1.1-0.9,2.1-1.5,2.7-1.8
						l0.3-0.2l6.8-3.6c-5.7-26.9-18.2-51.4-35.6-71.5c3.5-10.7,10.7-22.1,19.2-22.1c9.8,0,11.6-12.3,5.6-18.3
						c-6-6-18.3-4.2-18.3,5.6c0,8.4-11.4,15.6-22.1,19.1c-25.5-22.3-58.1-36.6-93.9-39c-5-10.1-7.9-23.1-2-29
						c6.9-6.9-0.5-16.9-9-16.9c-8.5,0-15.9,10-9,16.9c5.9,5.9,3,18.9-2,29c-35.8,2.5-68.4,16.8-93.9,39
						c-10.7-3.5-22.1-10.7-22.1-19.1c0-9.8-12.3-11.6-18.3-5.6C97.2,86.9,99,99.2,108.8,99.2z"/>
					<path class="st0" d="M248.6,102.6C185,102.6,132.5,151,126,212.9l26.2-15.1c12.2-41.7,50.8-72.3,96.4-72.3
						c45.6,0,84.2,30.6,96.4,72.3l26.2,15.1C364.6,151,312.2,102.6,248.6,102.6z"/>
				</g>
				<polygon class="st0" points="235.9,429.2 246.9,425.9 268.6,436.6 252.3,458.3 228.7,448.9 				"/>
				<g>
					<circle class="st0" cx="248.6" cy="95.5" r="20.6"/>
					<circle class="st2" cx="248.6" cy="95.5" r="5.9"/>
				</g>
				<g>
					<circle class="st0" cx="154.5" cy="137" r="20.6"/>
					<circle class="st2" cx="154.5" cy="137" r="5.9"/>
				</g>
				<g>
					<circle class="st0" cx="341" cy="137" r="20.6"/>
					<circle class="st2" cx="341" cy="137" r="5.9"/>
				</g>
			</g>
		</g>
		<path class="st0" d="M69.6,216.9L69.6,216.9c0-0.1,0.2-0.1,0.4-0.2c0,0,0,0,0,0l0,0c2.5-0.7,5-0.9,7.6-1.1
			c1.7,0.1,3.7,0.1,5.8,0.7c1.1,0.2,2.2,0.5,3.3,0.9c1.1,0.4,2.2,0.9,3.3,1.5c2.3,1.1,4.4,2.8,6.3,4.8c7.9,8.5,10.6,21.3,11.4,32.5
			c0.6,8.1,0.2,16.6-1.4,24.6l-0.7-0.1c0.6-13.4-0.8-28.2-6.3-40.5c-0.8-1.6-1.6-3.2-2.5-4.7c-0.4-0.5-0.8-1.1-1.3-2
			c-1-1.3-2-2.5-3-3.6c-4.1-3.6-15.2-6.7-17.6,0.6c-0.9,2.8,0.8,5.5-0.7,8.2c-1.1,2.2-3.5,3.3-5.8,3.6c-5.5,0.7-10.7-3-11.2-8.6
			C56.4,225.7,63,219.6,69.6,216.9z"/>
		<path class="st0" d="M430.8,213.9L430.8,213.9c0-0.1-0.2-0.1-0.4-0.2c0,0,0,0,0,0l0,0c-2.5-0.7-5-0.9-7.6-1.1
			c-1.7,0.1-3.7,0.1-5.8,0.7c-1.1,0.2-2.2,0.5-3.3,0.9c-1.1,0.4-2.2,0.9-3.3,1.5c-2.3,1.1-4.4,2.8-6.3,4.8
			c-7.9,8.5-10.6,21.3-11.4,32.5c-0.6,8.1-0.2,16.6,1.4,24.6l0.7-0.1c-0.6-13.4,0.8-28.2,6.3-40.5c0.8-1.6,1.6-3.2,2.5-4.7
			c0.4-0.5,0.8-1.1,1.3-2c1-1.3,2-2.5,3-3.6c4.1-3.6,15.2-6.7,17.6,0.6c0.9,2.8-0.8,5.5,0.7,8.2c1.1,2.2,3.5,3.3,5.8,3.6
			c5.5,0.7,10.7-3,11.2-8.6C444,222.8,437.4,216.6,430.8,213.9z"/>
	</g>
</g>
</svg>
